<mxfile host="app.diagrams.net" agent="Mozilla/5.0 (Macintosh; Intel Mac OS X 10_15_7) AppleWebKit/537.36 (KHTML, like Gecko) Chrome/129.0.0.0 Safari/537.36" version="24.8.0">
  <diagram name="Pagina-1" id="ntBaGgcTTkCeSmaBw1pK">
    <mxGraphModel dx="884" dy="626" grid="0" gridSize="10" guides="1" tooltips="1" connect="1" arrows="1" fold="1" page="1" pageScale="1" pageWidth="1654" pageHeight="1169" background="#000000" math="0" shadow="0">
      <root>
        <mxCell id="0" />
        <mxCell id="1" parent="0" />
        <mxCell id="f_DECfh5fEgchAXclDWt-2" value="2" style="ellipse;whiteSpace=wrap;html=1;aspect=fixed;strokeWidth=2;fillColor=#000000;fontColor=#FFCCCC;strokeColor=#FFCCCC;" vertex="1" parent="1">
          <mxGeometry x="100" y="333" width="40" height="40" as="geometry" />
        </mxCell>
        <mxCell id="f_DECfh5fEgchAXclDWt-3" value="3" style="ellipse;whiteSpace=wrap;html=1;aspect=fixed;strokeWidth=2;fillColor=#000000;fontColor=#FFCCCC;strokeColor=#FFCCCC;" vertex="1" parent="1">
          <mxGeometry x="100" y="460" width="40" height="40" as="geometry" />
        </mxCell>
        <mxCell id="f_DECfh5fEgchAXclDWt-4" value="6" style="ellipse;whiteSpace=wrap;html=1;aspect=fixed;strokeWidth=2;fillColor=#000000;fontColor=#FFCCCC;strokeColor=#FFCCCC;" vertex="1" parent="1">
          <mxGeometry x="316" y="300" width="40" height="40" as="geometry" />
        </mxCell>
        <mxCell id="f_DECfh5fEgchAXclDWt-5" value="5" style="ellipse;whiteSpace=wrap;html=1;aspect=fixed;strokeWidth=2;fillColor=#000000;fontColor=#FFCCCC;strokeColor=#FFCCCC;" vertex="1" parent="1">
          <mxGeometry x="300" y="400" width="40" height="40" as="geometry" />
        </mxCell>
        <mxCell id="f_DECfh5fEgchAXclDWt-6" value="4" style="ellipse;whiteSpace=wrap;html=1;aspect=fixed;strokeWidth=2;fillColor=#000000;fontColor=#FFCCCC;strokeColor=#FFCCCC;" vertex="1" parent="1">
          <mxGeometry x="216" y="510" width="40" height="40" as="geometry" />
        </mxCell>
        <mxCell id="f_DECfh5fEgchAXclDWt-7" value="1" style="ellipse;whiteSpace=wrap;html=1;aspect=fixed;strokeWidth=2;fillColor=#000000;fontColor=#FFCCCC;strokeColor=#FFCCCC;" vertex="1" parent="1">
          <mxGeometry x="180" y="283" width="40" height="40" as="geometry" />
        </mxCell>
        <mxCell id="f_DECfh5fEgchAXclDWt-10" value="" style="endArrow=none;html=1;rounded=0;exitX=1;exitY=0;exitDx=0;exitDy=0;strokeColor=#96D7FC;" edge="1" parent="1" source="f_DECfh5fEgchAXclDWt-6" target="f_DECfh5fEgchAXclDWt-5">
          <mxGeometry width="50" height="50" relative="1" as="geometry">
            <mxPoint x="241" y="505" as="sourcePoint" />
            <mxPoint x="291" y="455" as="targetPoint" />
          </mxGeometry>
        </mxCell>
        <mxCell id="f_DECfh5fEgchAXclDWt-11" value="" style="endArrow=none;html=1;rounded=0;exitX=0.782;exitY=0.047;exitDx=0;exitDy=0;strokeColor=#96D7FC;entryX=0.5;entryY=1;entryDx=0;entryDy=0;exitPerimeter=0;" edge="1" parent="1" source="f_DECfh5fEgchAXclDWt-5" target="f_DECfh5fEgchAXclDWt-4">
          <mxGeometry width="50" height="50" relative="1" as="geometry">
            <mxPoint x="320" y="400" as="sourcePoint" />
            <mxPoint x="384" y="310" as="targetPoint" />
          </mxGeometry>
        </mxCell>
        <mxCell id="f_DECfh5fEgchAXclDWt-12" value="" style="endArrow=none;html=1;rounded=0;exitX=0;exitY=0.5;exitDx=0;exitDy=0;entryX=1;entryY=1;entryDx=0;entryDy=0;strokeColor=#96D7FC;" edge="1" parent="1" source="f_DECfh5fEgchAXclDWt-6" target="f_DECfh5fEgchAXclDWt-3">
          <mxGeometry width="50" height="50" relative="1" as="geometry">
            <mxPoint x="241" y="505" as="sourcePoint" />
            <mxPoint x="291" y="455" as="targetPoint" />
          </mxGeometry>
        </mxCell>
        <mxCell id="f_DECfh5fEgchAXclDWt-13" value="" style="endArrow=none;html=1;rounded=0;exitX=0.5;exitY=0;exitDx=0;exitDy=0;entryX=0.5;entryY=1;entryDx=0;entryDy=0;strokeColor=#96D7FC;" edge="1" parent="1" source="f_DECfh5fEgchAXclDWt-3" target="f_DECfh5fEgchAXclDWt-2">
          <mxGeometry width="50" height="50" relative="1" as="geometry">
            <mxPoint x="225" y="494" as="sourcePoint" />
            <mxPoint x="275" y="444" as="targetPoint" />
          </mxGeometry>
        </mxCell>
        <mxCell id="f_DECfh5fEgchAXclDWt-14" value="" style="endArrow=none;html=1;rounded=0;exitX=1;exitY=0;exitDx=0;exitDy=0;entryX=0.299;entryY=0.977;entryDx=0;entryDy=0;entryPerimeter=0;strokeColor=#96D7FC;" edge="1" parent="1" source="f_DECfh5fEgchAXclDWt-3" target="f_DECfh5fEgchAXclDWt-7">
          <mxGeometry width="50" height="50" relative="1" as="geometry">
            <mxPoint x="225" y="494" as="sourcePoint" />
            <mxPoint x="275" y="444" as="targetPoint" />
          </mxGeometry>
        </mxCell>
        <mxCell id="f_DECfh5fEgchAXclDWt-15" value="" style="endArrow=none;html=1;rounded=0;entryX=0.003;entryY=0.338;entryDx=0;entryDy=0;entryPerimeter=0;exitX=1;exitY=1;exitDx=0;exitDy=0;strokeColor=#96D7FC;" edge="1" parent="1" source="f_DECfh5fEgchAXclDWt-7" target="f_DECfh5fEgchAXclDWt-5">
          <mxGeometry width="50" height="50" relative="1" as="geometry">
            <mxPoint x="225" y="440" as="sourcePoint" />
            <mxPoint x="275" y="390" as="targetPoint" />
          </mxGeometry>
        </mxCell>
        <mxCell id="f_DECfh5fEgchAXclDWt-16" value="" style="endArrow=none;html=1;rounded=0;entryX=0.033;entryY=0.268;entryDx=0;entryDy=0;entryPerimeter=0;exitX=0.968;exitY=0.402;exitDx=0;exitDy=0;exitPerimeter=0;strokeColor=#96D7FC;" edge="1" parent="1" source="f_DECfh5fEgchAXclDWt-7" target="f_DECfh5fEgchAXclDWt-4">
          <mxGeometry width="50" height="50" relative="1" as="geometry">
            <mxPoint x="225" y="440" as="sourcePoint" />
            <mxPoint x="275" y="390" as="targetPoint" />
          </mxGeometry>
        </mxCell>
        <mxCell id="f_DECfh5fEgchAXclDWt-17" value="" style="whiteSpace=wrap;html=1;aspect=fixed;fillColor=#B59191;strokeColor=#FFFFFF;strokeWidth=0.5;" vertex="1" parent="1">
          <mxGeometry x="263" y="517" width="6" height="6" as="geometry" />
        </mxCell>
        <mxCell id="f_DECfh5fEgchAXclDWt-18" value="" style="whiteSpace=wrap;html=1;aspect=fixed;fillColor=#B59191;strokeColor=#FFFFFF;strokeWidth=0.5;" vertex="1" parent="1">
          <mxGeometry x="263" y="525" width="6" height="6" as="geometry" />
        </mxCell>
        <mxCell id="f_DECfh5fEgchAXclDWt-19" value="" style="whiteSpace=wrap;html=1;aspect=fixed;fillColor=#B59191;strokeColor=#FFFFFF;strokeWidth=0.5;" vertex="1" parent="1">
          <mxGeometry x="263" y="533" width="6" height="6" as="geometry" />
        </mxCell>
        <mxCell id="f_DECfh5fEgchAXclDWt-20" value="" style="whiteSpace=wrap;html=1;aspect=fixed;fillColor=#B59191;strokeColor=#FFFFFF;strokeWidth=0.5;" vertex="1" parent="1">
          <mxGeometry x="263" y="550" width="6" height="6" as="geometry" />
        </mxCell>
        <mxCell id="f_DECfh5fEgchAXclDWt-21" value="" style="whiteSpace=wrap;html=1;aspect=fixed;fillColor=#B59191;strokeColor=#FFFFFF;strokeWidth=0.5;" vertex="1" parent="1">
          <mxGeometry x="263" y="541" width="6" height="6" as="geometry" />
        </mxCell>
        <mxCell id="f_DECfh5fEgchAXclDWt-24" value="" style="whiteSpace=wrap;html=1;aspect=fixed;fillColor=#B59191;strokeColor=#FFFFFF;strokeWidth=0.5;" vertex="1" parent="1">
          <mxGeometry x="350" y="400" width="6" height="6" as="geometry" />
        </mxCell>
        <mxCell id="f_DECfh5fEgchAXclDWt-25" value="" style="whiteSpace=wrap;html=1;aspect=fixed;fillColor=#B59191;strokeColor=#FFFFFF;strokeWidth=0.5;" vertex="1" parent="1">
          <mxGeometry x="350" y="408" width="6" height="6" as="geometry" />
        </mxCell>
        <mxCell id="f_DECfh5fEgchAXclDWt-26" value="" style="whiteSpace=wrap;html=1;aspect=fixed;fillColor=#B59191;strokeColor=#FFFFFF;strokeWidth=0.5;" vertex="1" parent="1">
          <mxGeometry x="350" y="416" width="6" height="6" as="geometry" />
        </mxCell>
        <mxCell id="f_DECfh5fEgchAXclDWt-27" value="" style="whiteSpace=wrap;html=1;aspect=fixed;fillColor=#B59191;strokeColor=#FFFFFF;strokeWidth=0.5;" vertex="1" parent="1">
          <mxGeometry x="350" y="433" width="6" height="6" as="geometry" />
        </mxCell>
        <mxCell id="f_DECfh5fEgchAXclDWt-28" value="" style="whiteSpace=wrap;html=1;aspect=fixed;fillColor=#B59191;strokeColor=#FFFFFF;strokeWidth=0.5;" vertex="1" parent="1">
          <mxGeometry x="350" y="424" width="6" height="6" as="geometry" />
        </mxCell>
        <mxCell id="f_DECfh5fEgchAXclDWt-34" value="" style="whiteSpace=wrap;html=1;aspect=fixed;fillColor=#B59191;strokeColor=#FFFFFF;strokeWidth=0.5;" vertex="1" parent="1">
          <mxGeometry x="362" y="289" width="6" height="6" as="geometry" />
        </mxCell>
        <mxCell id="f_DECfh5fEgchAXclDWt-35" value="" style="whiteSpace=wrap;html=1;aspect=fixed;fillColor=#B59191;strokeColor=#FFFFFF;strokeWidth=0.5;" vertex="1" parent="1">
          <mxGeometry x="362" y="297" width="6" height="6" as="geometry" />
        </mxCell>
        <mxCell id="f_DECfh5fEgchAXclDWt-36" value="" style="whiteSpace=wrap;html=1;aspect=fixed;fillColor=#B59191;strokeColor=#FFFFFF;strokeWidth=0.5;" vertex="1" parent="1">
          <mxGeometry x="362" y="305" width="6" height="6" as="geometry" />
        </mxCell>
        <mxCell id="f_DECfh5fEgchAXclDWt-37" value="" style="whiteSpace=wrap;html=1;aspect=fixed;fillColor=#B59191;strokeColor=#FFFFFF;strokeWidth=0.5;" vertex="1" parent="1">
          <mxGeometry x="362" y="322" width="6" height="6" as="geometry" />
        </mxCell>
        <mxCell id="f_DECfh5fEgchAXclDWt-38" value="" style="whiteSpace=wrap;html=1;aspect=fixed;fillColor=#B59191;strokeColor=#FFFFFF;strokeWidth=0.5;" vertex="1" parent="1">
          <mxGeometry x="362" y="313" width="6" height="6" as="geometry" />
        </mxCell>
        <mxCell id="f_DECfh5fEgchAXclDWt-39" value="" style="whiteSpace=wrap;html=1;aspect=fixed;fillColor=#B59191;strokeColor=#FFFFFF;strokeWidth=0.5;" vertex="1" parent="1">
          <mxGeometry x="223" y="262" width="6" height="6" as="geometry" />
        </mxCell>
        <mxCell id="f_DECfh5fEgchAXclDWt-40" value="" style="whiteSpace=wrap;html=1;aspect=fixed;fillColor=#B59191;strokeColor=#FFFFFF;strokeWidth=0.5;" vertex="1" parent="1">
          <mxGeometry x="223" y="270" width="6" height="6" as="geometry" />
        </mxCell>
        <mxCell id="f_DECfh5fEgchAXclDWt-41" value="" style="whiteSpace=wrap;html=1;aspect=fixed;fillColor=#B59191;strokeColor=#FFFFFF;strokeWidth=0.5;" vertex="1" parent="1">
          <mxGeometry x="223" y="278" width="6" height="6" as="geometry" />
        </mxCell>
        <mxCell id="f_DECfh5fEgchAXclDWt-42" value="" style="whiteSpace=wrap;html=1;aspect=fixed;fillColor=#B59191;strokeColor=#FFFFFF;strokeWidth=0.5;" vertex="1" parent="1">
          <mxGeometry x="223" y="253" width="6" height="6" as="geometry" />
        </mxCell>
        <mxCell id="f_DECfh5fEgchAXclDWt-43" value="" style="whiteSpace=wrap;html=1;aspect=fixed;fillColor=#B59191;strokeColor=#FFFFFF;strokeWidth=0.5;" vertex="1" parent="1">
          <mxGeometry x="223" y="286" width="6" height="6" as="geometry" />
        </mxCell>
        <mxCell id="f_DECfh5fEgchAXclDWt-44" value="" style="whiteSpace=wrap;html=1;aspect=fixed;fillColor=#B59191;strokeColor=#FFFFFF;strokeWidth=0.5;" vertex="1" parent="1">
          <mxGeometry x="87" y="464" width="6" height="6" as="geometry" />
        </mxCell>
        <mxCell id="f_DECfh5fEgchAXclDWt-45" value="" style="whiteSpace=wrap;html=1;aspect=fixed;fillColor=#B59191;strokeColor=#FFFFFF;strokeWidth=0.5;" vertex="1" parent="1">
          <mxGeometry x="87" y="472" width="6" height="6" as="geometry" />
        </mxCell>
        <mxCell id="f_DECfh5fEgchAXclDWt-46" value="" style="whiteSpace=wrap;html=1;aspect=fixed;fillColor=#B59191;strokeColor=#FFFFFF;strokeWidth=0.5;" vertex="1" parent="1">
          <mxGeometry x="87" y="480" width="6" height="6" as="geometry" />
        </mxCell>
        <mxCell id="f_DECfh5fEgchAXclDWt-47" value="" style="whiteSpace=wrap;html=1;aspect=fixed;fillColor=#B59191;strokeColor=#FFFFFF;strokeWidth=0.5;" vertex="1" parent="1">
          <mxGeometry x="87" y="497" width="6" height="6" as="geometry" />
        </mxCell>
        <mxCell id="f_DECfh5fEgchAXclDWt-48" value="" style="whiteSpace=wrap;html=1;aspect=fixed;fillColor=#B59191;strokeColor=#FFFFFF;strokeWidth=0.5;" vertex="1" parent="1">
          <mxGeometry x="87" y="488" width="6" height="6" as="geometry" />
        </mxCell>
        <mxCell id="f_DECfh5fEgchAXclDWt-49" value="" style="whiteSpace=wrap;html=1;aspect=fixed;fillColor=#B59191;strokeColor=#FFFFFF;strokeWidth=0.5;" vertex="1" parent="1">
          <mxGeometry x="90" y="328" width="6" height="6" as="geometry" />
        </mxCell>
        <mxCell id="f_DECfh5fEgchAXclDWt-50" value="" style="whiteSpace=wrap;html=1;aspect=fixed;fillColor=#B59191;strokeColor=#FFFFFF;strokeWidth=0.5;" vertex="1" parent="1">
          <mxGeometry x="90" y="336" width="6" height="6" as="geometry" />
        </mxCell>
        <mxCell id="f_DECfh5fEgchAXclDWt-51" value="" style="whiteSpace=wrap;html=1;aspect=fixed;fillColor=#B59191;strokeColor=#FFFFFF;strokeWidth=0.5;" vertex="1" parent="1">
          <mxGeometry x="90" y="344" width="6" height="6" as="geometry" />
        </mxCell>
        <mxCell id="f_DECfh5fEgchAXclDWt-52" value="" style="whiteSpace=wrap;html=1;aspect=fixed;fillColor=#B59191;strokeColor=#FFFFFF;strokeWidth=0.5;" vertex="1" parent="1">
          <mxGeometry x="90" y="361" width="6" height="6" as="geometry" />
        </mxCell>
        <mxCell id="f_DECfh5fEgchAXclDWt-53" value="" style="whiteSpace=wrap;html=1;aspect=fixed;fillColor=#B59191;strokeColor=#FFFFFF;strokeWidth=0.5;" vertex="1" parent="1">
          <mxGeometry x="90" y="352" width="6" height="6" as="geometry" />
        </mxCell>
      </root>
    </mxGraphModel>
  </diagram>
</mxfile>
